<!DOCTYPE svg PUBLIC "-//W3C//DTD SVG 20010904//EN" "http://www.w3.org/TR/2001/REC-SVG-20010904/DTD/svg10.dtd">
<svg version="1.0" xmlns="http://www.w3.org/2000/svg" width="1200px" height="228px" viewBox="0 0 12000 2280" preserveAspectRatio="xMidYMid meet">
<g id="layer101" fill="#fdfdfd" stroke="none">
 <path d="M8994 2151 c-47 -21 -64 -56 -64 -128 0 -57 20 -95 84 -161 126 -132 384 -281 447 -260 7 2 -32 38 -87 80 -118 90 -263 218 -284 251 -8 13 -30 45 -47 72 -53 79 -44 93 28 46 106 -71 344 -318 524 -545 43 -55 108 -130 143 -168 35 -37 60 -68 55 -68 -5 0 -20 11 -33 25 -13 14 -27 25 -32 25 -5 0 -34 18 -64 41 -71 52 -150 89 -193 89 -25 0 -42 -9 -68 -35 -33 -33 -35 -39 -31 -83 l5 -48 -110 73 c-151 101 -266 132 -301 81 -22 -30 -20 -97 3 -163 11 -30 15 -55 10 -55 -4 0 -46 34 -91 76 -104 95 -169 134 -225 134 -67 0 -89 -48 -59 -132 19 -54 4 -50 -96 22 -119 87 -237 144 -296 144 -91 -1 -138 -50 -136 -144 0 -25 10 -66 21 -91 23 -52 115 -148 174 -181 58 -32 56 -44 -9 -63 -31 -9 -62 -21 -69 -27 -15 -12 -21 -8 -102 60 -141 119 -249 176 -361 189 -49 5 -62 12 -115 60 -117 107 -286 203 -354 203 -53 0 -127 -24 -153 -50 -23 -24 -28 -37 -28 -79 0 -27 -3 -52 -7 -54 -5 -3 -46 16 -93 42 -217 119 -359 156 -446 115 -46 -22 -74 -83 -74 -162 0 -34 -3 -62 -6 -62 -3 0 -34 22 -68 48 -166 132 -265 184 -361 190 -61 3 -74 1 -105 -20 -76 -52 -77 -151 -3 -296 90 -175 227 -334 298 -348 40 -7 115 10 115 27 0 5 -33 47 -72 93 -134 153 -228 303 -228 364 0 39 90 -4 474 -225 27 -15 91 -67 142 -115 186 -173 385 -250 477 -182 36 27 61 76 54 106 -19 74 -144 185 -290 259 -105 52 -149 60 -179 32 -26 -24 -45 -10 -83 60 -33 62 -29 89 14 95 39 6 178 -27 259 -61 117 -50 264 -140 284 -175 32 -54 154 -205 248 -307 134 -145 288 -340 395 -500 125 -187 127 -189 219 -190 59 0 78 4 95 19 28 26 27 42 -11 117 -38 76 -244 293 -402 422 -124 102 -196 168 -196 180 0 4 24 -5 53 -21 70 -41 167 -72 220 -72 34 0 49 6 69 28 36 38 48 65 48 107 0 49 -18 89 -78 167 -43 57 -48 68 -31 68 30 0 114 -45 209 -113 47 -33 89 -64 94 -69 6 -5 -2 -21 -21 -40 -32 -34 -53 -69 -53 -87 0 -6 9 -20 20 -31 36 -36 98 -27 221 30 59 27 120 50 136 50 15 0 57 -7 93 -17 37 -9 77 -13 92 -10 34 9 82 85 67 104 -6 6 -63 49 -127 94 -136 96 -272 225 -272 259 0 19 4 21 28 16 93 -23 442 -236 542 -331 119 -114 191 -150 228 -113 28 28 12 58 -87 164 -135 144 -181 234 -98 191 91 -47 378 -268 447 -344 46 -50 51 -53 97 -53 27 0 58 6 68 14 19 13 10 24 -140 178 -178 181 -252 278 -214 278 12 0 172 -88 219 -120 14 -10 57 -34 95 -54 39 -20 99 -59 135 -86 187 -143 283 -195 407 -221 46 -9 57 -8 95 11 113 55 138 73 138 102 0 11 -24 49 -53 86 -29 37 -80 103 -112 147 -32 44 -64 85 -71 90 -18 15 -139 183 -251 350 -220 326 -402 508 -582 582 -68 27 -113 29 -167 4z m-1645 -823 c92 -44 354 -318 412 -430 28 -54 25 -61 -21 -55 -70 9 -129 47 -239 153 -147 141 -251 279 -251 334 0 27 40 27 99 -2z m2324 -101 c31 -17 105 -68 163 -112 58 -44 114 -85 125 -91 28 -16 115 -100 122 -118 29 -74 -269 103 -414 246 -112 112 -111 140 4 75z m-2793 -225 c65 -44 170 -143 170 -160 0 -33 -81 5 -171 80 -90 74 -141 127 -134 138 8 13 68 -12 135 -58z"/>
 <path d="M9633 2151 c-49 -23 -73 -62 -73 -121 0 -54 21 -92 89 -163 128 -135 388 -286 452 -265 7 2 -32 38 -87 80 -111 84 -220 179 -277 241 -46 50 -97 126 -97 144 0 81 333 -230 580 -542 34 -44 96 -119 136 -167 78 -91 96 -123 42 -71 -52 48 -145 112 -201 139 -74 34 -111 32 -153 -10 -61 -61 -43 -132 74 -286 142 -186 325 -313 504 -350 52 -10 61 -9 100 10 72 35 102 52 121 68 18 16 23 57 8 67 -23 13 -327 430 -479 655 -209 310 -394 494 -571 567 -68 28 -113 29 -168 4z m660 -912 c109 -55 427 -308 427 -340 0 -33 -106 17 -238 111 -107 77 -262 217 -262 238 0 18 25 15 73 -9z"/>
 <path d="M4153 1836 c-52 -25 -73 -49 -73 -84 0 -14 51 -63 153 -149 83 -70 167 -143 185 -160 18 -18 37 -33 42 -33 23 0 6 30 -55 95 -59 65 -89 110 -47 72 10 -10 21 -17 24 -17 15 0 238 -201 465 -419 225 -216 487 -491 759 -797 98 -111 195 -211 215 -222 64 -38 169 -37 169 0 0 8 -63 126 -140 263 -164 292 -274 511 -324 647 -37 100 -58 218 -39 218 6 0 55 -70 109 -156 55 -86 108 -166 119 -178 25 -27 116 -153 131 -181 5 -11 36 -54 68 -95 171 -222 381 -410 518 -462 78 -29 309 -60 308 -40 -1 4 -32 27 -70 50 -39 24 -107 74 -153 110 -89 72 -427 400 -427 415 0 5 -35 48 -78 95 -44 48 -125 143 -182 212 -56 69 -121 147 -144 173 -22 27 -67 86 -98 130 -129 185 -153 207 -228 207 -68 0 -100 -69 -100 -216 0 -109 12 -152 97 -349 75 -173 127 -274 190 -363 25 -35 42 -66 39 -70 -8 -7 -2 -12 -106 118 -147 183 -375 452 -456 537 -155 160 -461 450 -545 515 -107 84 -227 158 -254 158 -11 0 -43 -11 -72 -24z"/>
 <path d="M10653 1833 c-22 -8 -16 -61 7 -68 39 -12 66 35 38 63 -13 13 -24 14 -45 5z"/>
 <path d="M10814 1831 c-35 -15 -54 -52 -54 -101 0 -57 16 -88 60 -118 28 -19 44 -23 78 -19 50 5 92 39 92 74 0 19 -5 23 -33 23 -21 0 -36 -7 -45 -20 -14 -23 -44 -26 -61 -6 -19 22 -25 84 -11 101 18 21 47 19 60 -5 8 -14 21 -20 45 -20 44 0 46 18 7 61 -21 24 -38 32 -72 35 -25 2 -55 0 -66 -5z"/>
 <path d="M11068 1824 c-36 -19 -48 -43 -48 -96 0 -102 102 -168 190 -123 38 20 50 43 50 97 0 103 -105 170 -192 122z m96 -60 c37 -36 28 -114 -13 -114 -42 0 -73 62 -52 106 12 28 42 31 65 8z"/>
 <path d="M11280 1818 c0 -7 10 -59 22 -115 l21 -103 33 0 c18 0 34 5 36 12 3 8 11 7 28 -5 30 -21 59 -22 88 -2 19 14 24 14 51 0 41 -21 67 -19 92 6 23 23 23 55 -1 167 -11 51 -12 52 -47 52 l-36 0 9 -42 c4 -24 8 -63 8 -88 1 -36 -3 -45 -18 -48 -28 -6 -38 11 -56 95 l-16 78 -38 3 c-32 3 -37 1 -33 -15 15 -51 28 -136 23 -149 -7 -17 -40 -18 -54 -1 -5 6 -18 47 -27 90 l-17 77 -34 0 c-20 0 -34 -5 -34 -12z"/>
 <path d="M3332 1523 c-27 -5 -55 -33 -190 -186 -57 -64 -109 -117 -116 -117 -22 0 -132 123 -160 178 -23 45 -30 52 -55 52 -20 0 -40 -11 -60 -31 -32 -32 -39 -65 -21 -99 17 -32 -8 -33 -48 -2 -61 49 -177 120 -205 127 -68 17 -95 -34 -80 -153 5 -41 6 -72 1 -72 -5 0 -38 27 -73 61 -109 106 -227 179 -285 179 -21 0 -41 -9 -61 -29 -24 -25 -29 -37 -29 -80 0 -60 -1 -60 -105 10 -110 74 -153 93 -221 97 -73 5 -127 -16 -149 -59 -10 -19 -15 -61 -15 -134 0 -104 1 -107 41 -187 126 -251 343 -495 594 -670 109 -76 313 -182 371 -192 42 -8 76 10 98 53 14 25 13 32 -5 69 -27 55 -183 227 -302 334 -110 98 -266 217 -437 333 -63 43 -128 90 -143 104 -52 47 -78 119 -61 165 10 25 62 19 134 -15 119 -56 421 -243 518 -321 111 -89 220 -154 312 -185 83 -29 124 -29 151 -2 13 13 28 19 41 15 25 -6 88 39 88 63 0 9 -58 86 -129 171 -115 137 -177 227 -166 238 5 5 169 -91 291 -170 69 -44 111 -81 172 -151 103 -118 613 -624 671 -666 34 -24 54 -31 91 -31 28 0 52 6 59 14 12 14 28 -4 -344 391 -249 265 -317 343 -306 350 6 3 34 -12 63 -33 63 -48 128 -80 226 -116 100 -35 142 -34 187 5 47 42 48 81 1 135 -69 81 -264 192 -385 219 -39 9 -73 21 -76 26 -10 15 196 213 248 238 26 12 47 27 47 32 0 5 -18 18 -40 29 -37 19 -84 23 -138 13z m-1097 -290 c49 -33 312 -241 380 -301 69 -61 77 -76 34 -67 -87 19 -239 126 -361 253 -71 75 -119 142 -101 142 5 0 26 -12 48 -27z m1007 -134 c48 -19 186 -100 246 -145 63 -48 24 -61 -58 -19 -50 26 -290 184 -290 191 0 7 49 -7 102 -27z m-1267 -315 c128 -112 395 -382 395 -399 0 -8 -3 -15 -6 -15 -34 0 -343 274 -466 413 -122 139 -81 139 77 1z"/>
 <path d="M262 1498 c-26 -33 -52 -101 -52 -137 0 -69 90 -223 238 -404 57 -71 347 -357 492 -486 129 -114 184 -149 206 -130 41 34 38 45 -39 126 -195 207 -227 242 -227 252 0 16 11 14 88 -14 199 -72 403 -189 492 -281 100 -104 80 -135 -99 -155 -76 -9 -133 -9 -233 0 -289 25 -548 113 -783 265 -261 170 -162 197 144 40 47 -24 98 -51 113 -61 35 -22 46 -11 23 24 -78 119 -290 263 -386 263 -49 0 -97 -29 -132 -79 -26 -37 -32 -55 -30 -93 5 -184 365 -411 809 -514 199 -46 424 -35 543 25 86 44 143 120 157 209 14 87 -71 203 -226 306 -38 26 -70 51 -70 55 0 5 14 15 32 22 41 17 95 64 114 100 8 16 14 55 14 91 0 115 -60 205 -198 299 -143 98 -433 213 -567 226 -93 8 -165 -16 -226 -77 -59 -59 -63 -56 -115 58 -37 82 -57 100 -82 70z m395 -208 c167 -40 414 -153 533 -245 72 -56 142 -132 159 -173 12 -29 12 -35 -3 -50 -30 -30 -195 -22 -349 16 -151 38 -163 38 -179 12 -7 -11 -20 -20 -28 -20 -13 1 -343 431 -357 466 -8 22 124 18 224 -6z"/>
 <path d="M3713 1444 c-79 -40 -98 -197 -39 -318 40 -82 216 -259 311 -314 181 -104 306 -106 361 -6 20 36 15 65 -18 114 -39 58 -158 149 -261 201 -102 51 -155 61 -177 34 -20 -25 -37 -17 -69 28 -53 77 -50 127 6 127 50 0 176 -32 251 -64 111 -47 315 -169 500 -300 156 -111 182 -122 182 -80 0 15 -203 206 -282 266 -31 24 -81 57 -110 74 -29 17 -83 49 -120 72 -90 56 -236 129 -306 153 -80 28 -188 35 -229 13z m326 -433 c161 -99 262 -233 121 -161 -71 36 -246 192 -235 210 8 12 27 4 114 -49z"/>
 <path d="M10843 1444 c-46 -23 -73 -84 -73 -167 0 -119 52 -211 203 -353 165 -158 372 -233 460 -168 36 27 61 76 54 106 -19 74 -144 185 -290 259 -105 52 -149 60 -179 32 -27 -24 -46 -9 -82 61 -48 92 -23 109 114 82 158 -32 366 -143 660 -352 129 -91 165 -112 176 -103 24 20 16 33 -58 105 -150 144 -278 236 -523 373 -227 128 -375 168 -462 125z m332 -433 c75 -49 185 -149 185 -169 0 -47 -147 45 -273 171 -71 71 -22 70 88 -2z"/>
 <path d="M6337 653 c-14 -13 -7 -66 13 -97 27 -44 104 -97 149 -103 32 -4 41 -1 55 18 23 34 20 54 -16 94 -57 65 -173 116 -201 88z"/>
 </g>

</svg>